/* XPM */
static char *Beach_Tileset_40[] = {
/* columns rows colors chars-per-pixel */
"64 64 2 1 ",
"  c #F77622",
". c #FEAE34",
/* pixels */
"............................................................    ",
"............................................................    ",
"............................................................  ..",
"............................................................  ..",
"..........................................................    ..",
"..........................................................    ..",
"..........................................................    ..",
"..........................................................    ..",
"........................................................      ..",
"........................................................      ..",
"......................................................      ....",
"......................................................      ....",
"....................................................      ......",
"....................................................      ......",
"..................................................      ........",
"..................................................      ........",
"................................................      ..........",
"................................................      ..........",
"............................................        ............",
"............................................        ............",
"........................................          ..............",
"........................................          ..............",
"......................................          ................",
"......................................          ................",
"..................................          ....................",
"..................................          ....................",
"............................            ........................",
"............................            ........................",
"......................                ..........................",
"......................                ..........................",
"................                  ..............................",
"................                  ..............................",
"............                ....................................",
"............                ....................................",
"........              ..........................................",
"........              ..........................................",
"......              ............................................",
"......              ............................................",
"....            ................................................",
"....            ................................................",
"....          ..................................................",
"....          ..................................................",
"..        ......................................................",
"..        ......................................................",
"..        ......................................................",
"..        ......................................................",
"..      ........................................................",
"..      ........................................................",
"      ..........................................................",
"      ..........................................................",
"      ..........................................................",
"      ..........................................................",
"    ............................................................",
"    ............................................................",
"    ............................................................",
"    ............................................................",
"  ..............................................................",
"  ..............................................................",
"  ............................................................  ",
"  ............................................................  ",
"..............................................................  ",
"..............................................................  ",
"..............................................................  ",
"..............................................................  "
};
