/* XPM */
static char *result[] = {
/* columns rows colors chars-per-pixel */
"64 64 25 1 ",
"  c #000008",
". c #030916",
"X c #060E1F",
"o c #260904",
"O c #061021",
"+ c #0B192F",
"@ c #0B1731",
"# c #0B1B33",
"$ c #0E1D39",
"% c #461402",
"& c #4F2304",
"* c #7E3802",
"= c #112143",
"- c #14274E",
"; c #132B4B",
": c #19315C",
"> c #1E386D",
", c #23437F",
"< c #843000",
"1 c #8E3800",
"2 c #AF4F00",
"3 c #B75200",
"4 c #BB5400",
"5 c #2B5397",
"6 c #335FB3",
/* pixels */
"443222%      o%%=>66666655655;;#66655555566666>=443222%      o%%",
"44322%       o%<=>655555555555;#66555555555555:=44322%       o%<",
"4432%        o<<$:5555555555,;;#65555,,,,,,,55:$4432%        o<<",
"443%         <<<@-,,555555,,;###6555,,,,,,,,,,-@443%         <<<",
"44%         <1<<@-,,,,,,,,,,;;##6555,,,,,,,,,,-@44%         <1<<",
"4%&        <21<<@:55,,,,,,,,,;##6555,,,,;;;,,,-@4%&        <21<<",
"%*&       <221<<$-,,;,,,,,,,,;;#555,,,,;,,,;;,-@%*&       <221<<",
"**&      <2221<%@-,,;,,,,,,,,,;#55,,,,,;,,,,;,-@**&      <2221<%",
"**&     <22221%%@-;;;,,,,,,,,,;#55,,,,,;5555,,-@**&     <22221%%",
"**&    <22222%%%X+,,,,,,,,,,,;##655,,,,,,555,,-@**&    <22222%%%",
"**&   <22222%o%%@-,,,,,,,,,,,;##655,,,,,,,,,,,-@**&   <22222%o%%",
"**&  <22222% o%%X-,,;,,,,,,;;;##655,,,,,,,;;;,-@**&  <22222% o%%",
"**& <22222%  o%%X-,;;;,###;##;##55,,,###,;;;;,-@**& <22222%  o%%",
"**&<22222%   o%%X+;;;;;#########55;;###,;;;;;;+X**&<22222%   o%%",
"**<22222%    o%%.+;#############;;####;;;;;;##O.**<22222%    o%%",
"*<32222%     o%%.O############################O.*<32222%     o%%",
"<43222%      o%%=>655555566666666666666655655;+.<43222%      o%%",
"44322%       o%<=>5555555555555666655555555555+.44322%       o%<",
"4432%        o<<=:555,,,,,,,5555555555555555,;+.4432%        o<<",
"443%         <<<=:55,,,,,,,,,,,,,,,,555555,,;#O.443%         <<<",
"44%         <1<<=:55,,,,,,,,,,,,,,,,,,,,,,,,;;O.44%         <1<<",
"4%&        <21<<=:55,,,,;;,,,,,,,,,,,,,,,,,,,;O.4%&        <21<<",
"%*&       <221<<$:5,,,,;,,5,,,,,,,,,,,,,,,,,,;+.%*&       <221<<",
"**&      <2221<%$:,,,,,;,,5,,,;,,,,,,55,,,,,,,+.**&      <2221<%",
"**&     <22221%%$:,,,,,,55,,,,,5,,,,,5,;,,,,,,+.**&     <22221%%",
"**&    <22222%%%=:5,,,,,,,,,,,,,,,,,,,;;,,,,,;O.**&    <22222%%%",
"**&   <22222%o%%=:5,,,,,,,,,,,,,,,,,,,,,,,,,,;O.**&   <22222%o%%",
"**&  <22222% o%%=:5,,,,,,,,,,;##;,,,,,,,,,,;;;O.**&  <22222% o%%",
"**& <22222%  o%%$:,,,,,,,,;###;;;,,,;###,,;##;O.**& <22222%  o%%",
"**&<22222%   o%%$:;;;,,,,;##;;;;;,;;##;;;;####O.**&<22222%   o%%",
"**<22222%    o%%X+##;;;;;;#;;;###;;##;;;;#####O.**<22222%    o%%",
"*<32222%     o%%.O############################O.*<32222%     o%%",
"<43222%      o%%$:655;;#6665555556666666666666>=<43222%      o%%",
"44322%       o%<$:5555;#6655555555555556666555:$44322%       o%<",
"4432%        o<<$:55,;;#65555,,,,,,,5555555555:$4432%        o<<",
"443%         <<<$:,,;###6555,,,,,,,,,,,,,,,,55:$443%         <<<",
"44%         <1<<@-,,;;##6555,,,,,,,,,;;;,,,,,,-@44%         <1<<",
"4%&        <21<<@-,,,;##6555,,,,,,,,;,,,,,,,,,-@4%&        <21<<",
"%*&       <221<<@-,,,;;#555,,,,,,,,,;,,,5,,,,,-@%*&       <221<<",
"**&      <2221<%@-,,,,;#55,,,;,,,,,,,5555,,,,,-X**&      <2221<%",
"**&     <22221%%@-,,,,;#55,,,,5,,,,,,,,,,,,,,,-X**&     <22221%%",
"**&    <22222%%%@-,,,;##655,,,,,,,,,,,,,,,,,,,-X**&    <22222%%%",
"**&   <22222%o%%@-,,,;##655,,,,,,,,,,,,,,,,,,,-X**&   <22222%o%%",
"**&  <22222% o%%@-,;;;##655,,,,,###,,,,,,,###,+X**&  <22222% o%%",
"**& <22222%  o%%@-;##;##55,,,,,#;;;,,,,,,#;;;;-@**& <22222%  o%%",
"**&<22222%   o%%.O######55;;;,##;;;;;;;;#;;;;;+X**&<22222%   o%%",
"**<22222%    o%%XO######;;##;;#;;;;;#####;;###OX**<22222%    o%%",
"*<32222%     o%%.O############################O.*<32222%     o%%",
"<43222%      o%%$>6666666666666655655;;#666555:$<43222%      o%%",
"44322%       o%<$:55555666655555555555;#665555:$44322%       o%<",
"4432%        o<<@-,,5555555555555555,;;#65555,-@4432%        o<<",
"443%         <<<@-,,,,,,;;;,555555,,;###6555,,-@443%         <<<",
"44%         <1<<@+;;,,,,;,,5,,,,,,,,;;##6555,,-@44%         <1<<",
"4%&        <21<<X-,,;,,;,,,5,,;;,,,,,;##6555,,-@4%&        <21<<",
"%*&       <221<<@-,,5,,;,555,,;,5,,,,;;#555,,,-X%*&       <221<<",
"**&      <2221<%@-,55,,,,,,,,;,,5,,,,,;#55,,,,-@**&      <2221<%",
"**&     <22221%%X-55,,,,,,,,,,,55,,,,,;#55,,,;+@**&     <22221%%",
"**&    <22222%%%@:5,,,,,,,,,,,,,,,,,,;##655,;,-$**&    <22222%%%",
"**&   <22222%o%%@-,,,,,,,,,,,,,,,,,,,;##655,;,-$**&   <22222%o%%",
"**&  <22222% o%%X-,,,,,,##,,,,,,,,,;;;##655,,5:@**&  <22222% o%%",
"**& <22222%  o%%X-,,,,,#;;;,;;,,,,;##;##55,,,,-@**& <22222%  o%%",
"**&<22222%   o%%X-,;;##;;;;;;;;;;;######55;;;,-.**&<22222%   o%%",
"**<22222%    o%%X+;;##;;;;;####;;#######;;##;;OX**<22222%    o%%",
"*<32222%     o%%.O############################O.*<32222%     o%%"
};
