/* XPM */
static char *result[] = {
/* columns rows colors chars-per-pixel */
"64 64 9 1 ",
"  c #000008",
". c #1E1E21",
"X c gray20",
"o c #313134",
"O c #3A3A3E",
"+ c #464649",
"@ c #535353",
"# c gray39",
"$ c #777777",
/* pixels */
"                                                                ",
" .XXXXXXXXXXXX.  .XXXXXXXXXXXX.  .XXXXXXXXXXXX.  .XXXXXXXXXXXX. ",
" Xo@@@@@@@@@@oX  Xo@@@@@@@@@@oX  Xo@@@@@@@@@@oX  Xo@@@@@@@@@@oX ",
" X@O########O@X  X@O########O@X  X@O########O@X  X@O########O@X ",
" X@#+$$$$$$+#@X  X@#+$$$$$$+#@X  X@#+$$$$$$+#@X  X@#+$$$$$$+#@X ",
" X@#$o@@@@o$#@X  X@#$o@@@@o$#@X  X@#$o@@@@o$#@X  X@#$o@@@@o$#@X ",
" X@#$@.XX.@$#@X  X@#$@.XX.@$#@X  X@#$@.XX.@$#@X  X@#$@.XX.@$#@X ",
" X@#$@X  X@$#@X  X@#$@X  X@$#@X  X@#$@X  X@$#@X  X@#$@X  X@$#@X ",
" X@#$@X  X@$#@X  X@#$@X  X@$#@X  X@#$@X  X@$#@X  X@#$@X  X@$#@X ",
" X@#$@.XX.@$#@X  X@#$@.XX.@$#@X  X@#$@.XX.@$#@X  X@#$@.XX.@$#@X ",
" X@#$o@@@@o$#@X  X@#$o@@@@o$#@X  X@#$o@@@@o$#@X  X@#$o@@@@o$#@X ",
" X@#+$$$$$$+#@X  X@#+$$$$$$+#@X  X@#+$$$$$$+#@X  X@#+$$$$$$+#@X ",
" X@O########O@X  X@O########O@X  X@O########O@X  X@O########O@X ",
" Xo@@@@@@@@@@oX  Xo@@@@@@@@@@oX  Xo@@@@@@@@@@oX  Xo@@@@@@@@@@oX ",
" .XXXXXXXXXXXX.  .XXXXXXXXXXXX.  .XXXXXXXXXXXX.  .XXXXXXXXXXXX. ",
"                                                                ",
"                                                                ",
" .XXXXXXXXXXXX.  .XXXXXXXXXXXX.  .XXXXXXXXXXXX.  .XXXXXXXXXXXX. ",
" Xo@@@@@@@@@@oX  Xo@@@@@@@@@@oX  Xo@@@@@@@@@@oX  Xo@@@@@@@@@@oX ",
" X@O########O@X  X@O########O@X  X@O########O@X  X@O########O@X ",
" X@#+$$$$$$+#@X  X@#+$$$$$$+#@X  X@#+$$$$$$+#@X  X@#+$$$$$$+#@X ",
" X@#$o@@@@o$#@X  X@#$o@@@@o$#@X  X@#$o@@@@o$#@X  X@#$o@@@@o$#@X ",
" X@#$@.XX.@$#@X  X@#$@.XX.@$#@X  X@#$@.XX.@$#@X  X@#$@.XX.@$#@X ",
" X@#$@X  X@$#@X  X@#$@X  X@$#@X  X@#$@X  X@$#@X  X@#$@X  X@$#@X ",
" X@#$@X  X@$#@X  X@#$@X  X@$#@X  X@#$@X  X@$#@X  X@#$@X  X@$#@X ",
" X@#$@.XX.@$#@X  X@#$@.XX.@$#@X  X@#$@.XX.@$#@X  X@#$@.XX.@$#@X ",
" X@#$o@@@@o$#@X  X@#$o@@@@o$#@X  X@#$o@@@@o$#@X  X@#$o@@@@o$#@X ",
" X@#+$$$$$$+#@X  X@#+$$$$$$+#@X  X@#+$$$$$$+#@X  X@#+$$$$$$+#@X ",
" X@O########O@X  X@O########O@X  X@O########O@X  X@O########O@X ",
" Xo@@@@@@@@@@oX  Xo@@@@@@@@@@oX  Xo@@@@@@@@@@oX  Xo@@@@@@@@@@oX ",
" .XXXXXXXXXXXX.  .XXXXXXXXXXXX.  .XXXXXXXXXXXX.  .XXXXXXXXXXXX. ",
"                                                                ",
"                                                                ",
" .XXXXXXXXXXXX.  .XXXXXXXXXXXX.  .XXXXXXXXXXXX.  .XXXXXXXXXXXX. ",
" Xo@@@@@@@@@@oX  Xo@@@@@@@@@@oX  Xo@@@@@@@@@@oX  Xo@@@@@@@@@@oX ",
" X@O########O@X  X@O########O@X  X@O########O@X  X@O########O@X ",
" X@#+$$$$$$+#@X  X@#+$$$$$$+#@X  X@#+$$$$$$+#@X  X@#+$$$$$$+#@X ",
" X@#$o@@@@o$#@X  X@#$o@@@@o$#@X  X@#$o@@@@o$#@X  X@#$o@@@@o$#@X ",
" X@#$@.XX.@$#@X  X@#$@.XX.@$#@X  X@#$@.XX.@$#@X  X@#$@.XX.@$#@X ",
" X@#$@X  X@$#@X  X@#$@X  X@$#@X  X@#$@X  X@$#@X  X@#$@X  X@$#@X ",
" X@#$@X  X@$#@X  X@#$@X  X@$#@X  X@#$@X  X@$#@X  X@#$@X  X@$#@X ",
" X@#$@.XX.@$#@X  X@#$@.XX.@$#@X  X@#$@.XX.@$#@X  X@#$@.XX.@$#@X ",
" X@#$o@@@@o$#@X  X@#$o@@@@o$#@X  X@#$o@@@@o$#@X  X@#$o@@@@o$#@X ",
" X@#+$$$$$$+#@X  X@#+$$$$$$+#@X  X@#+$$$$$$+#@X  X@#+$$$$$$+#@X ",
" X@O########O@X  X@O########O@X  X@O########O@X  X@O########O@X ",
" Xo@@@@@@@@@@oX  Xo@@@@@@@@@@oX  Xo@@@@@@@@@@oX  Xo@@@@@@@@@@oX ",
" .XXXXXXXXXXXX.  .XXXXXXXXXXXX.  .XXXXXXXXXXXX.  .XXXXXXXXXXXX. ",
"                                                                ",
"                                                                ",
" .XXXXXXXXXXXX.  .XXXXXXXXXXXX.  .XXXXXXXXXXXX.  .XXXXXXXXXXXX. ",
" Xo@@@@@@@@@@oX  Xo@@@@@@@@@@oX  Xo@@@@@@@@@@oX  Xo@@@@@@@@@@oX ",
" X@O########O@X  X@O########O@X  X@O########O@X  X@O########O@X ",
" X@#+$$$$$$+#@X  X@#+$$$$$$+#@X  X@#+$$$$$$+#@X  X@#+$$$$$$+#@X ",
" X@#$o@@@@o$#@X  X@#$o@@@@o$#@X  X@#$o@@@@o$#@X  X@#$o@@@@o$#@X ",
" X@#$@.XX.@$#@X  X@#$@.XX.@$#@X  X@#$@.XX.@$#@X  X@#$@.XX.@$#@X ",
" X@#$@X  X@$#@X  X@#$@X  X@$#@X  X@#$@X  X@$#@X  X@#$@X  X@$#@X ",
" X@#$@X  X@$#@X  X@#$@X  X@$#@X  X@#$@X  X@$#@X  X@#$@X  X@$#@X ",
" X@#$@.XX.@$#@X  X@#$@.XX.@$#@X  X@#$@.XX.@$#@X  X@#$@.XX.@$#@X ",
" X@#$o@@@@o$#@X  X@#$o@@@@o$#@X  X@#$o@@@@o$#@X  X@#$o@@@@o$#@X ",
" X@#+$$$$$$+#@X  X@#+$$$$$$+#@X  X@#+$$$$$$+#@X  X@#+$$$$$$+#@X ",
" X@O########O@X  X@O########O@X  X@O########O@X  X@O########O@X ",
" Xo@@@@@@@@@@oX  Xo@@@@@@@@@@oX  Xo@@@@@@@@@@oX  Xo@@@@@@@@@@oX ",
" .XXXXXXXXXXXX.  .XXXXXXXXXXXX.  .XXXXXXXXXXXX.  .XXXXXXXXXXXX. ",
"                                                                "
};
