/* XPM */
static char *result[] = {
/* columns rows colors chars-per-pixel */
"64 64 19 1 ",
"  c #000008",
". c gray8",
"X c gray16",
"o c #313131",
"O c gray20",
"+ c #373737",
"@ c gray22",
"# c #393939",
"$ c gray26",
"% c gray28",
"& c #4C4C4C",
"* c #515151",
"= c gray32",
"- c #535353",
"; c gray36",
": c #872F00",
"> c #AB7228",
", c #F39317",
"< c gray53",
/* pixels */
".............-<<--OOO.....................-<<--OOO..............",
"o$;;;;;;;;;&..........X;;;;;;;;;;;;;;;;;$..........X;;;;;;;;;;&.",
".;&;;;;;;;;&.-<<--OOO.X;;;;;;;;;;;;;;;;;$.-<<--OOO.X;;;;;;;;;&O.",
".;;&;;;;;;;&.-<<--OOO.X;;;;;;;;;;;;;;;;;$.-<<--OOO.X;;;;;;;;&OX.",
".;;*%******&.-<<--OOO.X*****************$.-<<--OOO.X*******%OXX.",
".;;*$$$$$$$$.-<<--OOO.X$$$$$$$$$$$$$$$$$$.-<<--OOO.X$$$$$$$$OXX.",
".;;*$$$$$$$$.-<<--OOO.X$$$$$$$$$$$$$$$$$$.-<<--OOO.X$$$$$$$$OXX.",
".;;*$+X+$$$$.-<<--OOO.X$$$$$$$$$$$$$$$$$$.-<<--OOO.X$$$$+X+$OXX.",
".;;*$X.X$$$$..........X$$$$$$$$$$$$$$$$$$..........X$$$$X.X$OXX.",
".;;*$@X+$$$$..-<--OO..X$$$$$$$$$$$$$$$$$$..-<--OO..X$$$$@X+$OXX.",
".;;*$$$$$$$$..........X$$$$$$$$$$$$$$$$$$..........X$$$$$$$$OXX.",
".;;*$$$$$$$$..-<--OO..X$$$$$$$$$$$$$$$$$$..-<--OO..X$$$$$$$$OXX.",
".;;*$$$$$$$$..........X$$$$$$$$$$$$$$$$$$..........X$$$$$$$$OXX.",
".;;*$$$$$$$$XXXXXXXXXXX$$$$$$$$$$$$$$$$$$XXXXXXXXXXX$$$$$$$$OXX.",
".;;*$$$$$$$$$$$$$$$$$$$$$$$$$$$$$$$$$$$$$$$$$$$$$$$$$$$$$$$$OXX.",
".;;*$$$$$XXXXXXXXXXXXXXXXXXXXXXXXXXXXXXXXXXXXXXXXXXXXX$$$$$$OXX.",
".;;*$$$$$X                                           X$$$$$$OXX.",
".;;*$$$$$X,,,:       :,,,,,,,:       :,,,,,,,:       X$$$$$$OXX.",
".;;*$$$$$X,,:       :,,,,,,,:       :,,,,,,,:       :X$$$$$$OXX.",
".;;*$$$$$X,:       :,,,,,,,:       :,,,,,,,:       :,X$$$$$$OXX.",
".;;*$$$$$X:       :,,,,,,,:       :,,,,,,,:       :,,X$$$$$$OXX.",
".;;*$$$$$X       :,,,,,,,:       :,,,,,,,:       :,,,X$$$$$$OXX.",
".;;*$$$$$X      :,,,,,,,:       :,,,,,,,:       :,,,,X$$$$$$OXX.",
".;;*$+X+$X     :,,,,,,,:       :,,,,,,,:       :,,,,,X$$+X+$OXX.",
".;;*$X.X$X    :,,,,,,,:       :,,,,,,,:       :,,,,,,X$$X.X$OXX.",
".;;*$@X+$#$$$$$$$$$$$$$$$$$$$$$$$$$$$$$$$$$$$$$$$$$$$X$$@X+$OXX.",
".;;*$$$$$#$;;;;;;;;;;;;;;;;;;;;;;;;;;;;;;;;;;;;;;;;;$X$$$$$$OXX.",
".;;*$$$$$$$$$$$$$$$$$$$$$$$$$$$$$$$$$$$$$$$$$$$$$$$$$$$$$$$$OXX.",
".;;=#OOOOOOOOOOOOOOOOOOOOOOOOOOOOOOOOOOOOOOOOOOOOOOOOOOOOOOO+XX.",
".;=OXXXXXXXXXXXXXXXXXXXXXXXXXXXXXXXXXXXXXXXXXXXXXXXXXXXXXXXXXoX.",
".=OXXXXXXXXXXXXXXXXXXXXXXXXXXXXXXXXXXXXXXXXXXXXXXXXXXXXXXXXXXXo.",
"................................................................",
"................................................................",
".=;;;;;;;;;;;;;;;;;;;;;;;;;;;;;;;;;;;;;;;;;;;;;;;;;;;;;;;;;;;;&.",
".;=;;;;;;;;;;;;;;;;;;;;;;;;;;;;;;;;;;;;;;;;;;;;;;;;;;;;;;;;;;$X.",
".;;=;;;;;;;;;;;;;;;;;;;;;;;;;;;;;;;;;;;;;;;;;;;;;;;;;;;;;;;;&XX.",
".;;*$******************************************************&OXX.",
".;;*$$$$$XXXXXXXXXXXXXXXXXXXXXXXXXXXXXXXXXXXXXXXXXXXXX$$$$$$OXX.",
".;;*$$$$$X                                           X$$$$$$OXX.",
".;;*$+X+$X,,,:       :,,,,,,,:       :,,,,,,,:       X$$+X+$OXX.",
".;;*$X.X$X,,:       :,,,,,,,:       :,,,,,,,:       :X$$X.X$OXX.",
".;;*$@X+$X,:       :,,,,,,,:       :,,,,,,,:       :,X$$@X+$OXX.",
".;;*$$$$$X:       :,,,,,,,:       :,,,,,,,:       :,,X$$$$$$OXX.",
".;;*$$$$$X       :,,,,,,,:       :,,,,,,,:       :,,,X$$$$$$OXX.",
".;;*$$$$$X      :,,,,,,,:       :,,,,,,,:       :,,,,X$$$$$$OXX.",
".;;*$$$$$X     :,,,,,,,:       :,,,,,,,:       :,,,,,X$$$$$$OXX.",
".;;*$$$$$O    :,,,,,,,:       :,,,,,,,:       :,,,,,>X$$$$$$OXX.",
".;;*$$$$$#$$$$$$$$$$$$$$$$$$$$$$$$$$$$$$$$$$$$$$$$$$$X$$$$$$OXX.",
".;;*$$$$$#$*;;;;;;;;;;;;;;;;;;;;;;;;;;;;;;;;;;;;;;;*$#$$$$$$OXX.",
".;;*$$$$$$$$$$$$$$$$$$$$$$$$$$$$$$$$$$$$$$$$$$$$$$$$$$$$$$$$OXX.",
".;;*$$$$$$$$OOXXXXXXXXO$$$$$$$$$$$$$$$$$$OOOOXXXXXOX$$$$$$$$OXX.",
".;;*$$$$$$$$..........X$$$$$$$$$$$$$$$$$$..........O$$$$$$$$OXX.",
".;;*$$$$$$$$..-<--OO..X$$$$$$$$$$$$$$$$$$..-<--OO..O$$$$$$$$OXX.",
".;;*$$$$$$$$..........X$$$$$$$$$$$$$$$$$$..........X$$$$$$$$OXX.",
".;;*$$$$$$$$..-<--OO..X$$$$$$$$$$$$$$$$$$..-<--OO..X$$$$$$$$OXX.",
".;;*$+X+$$$$..........X$$$$$$$$$$$$$$$$$$..........X$$$$+X+$OXX.",
".;;*$X.X$$$$.-<<--OOO.X$$$$$$$$$$$$$$$$$$.-<<--OOO.X$$$$X.X$OXX.",
".;;*$@X+$$$$.-<<--OOO.X$$$$$$$$$$$$$$$$$$.-<<--OOO.X$$$$@X+$OXX.",
".;;*$$$$$$$$.-<<--OOO.X$$$$$$$$$$$$$$$$$$.-<<--OOO.X$$$$$$$$OXX.",
".;;*$$$$$$$$.-<<--OOO.XOOOOOOOOOOOOOOOOO$.-<<--OOO.X$$$$$$$$OXX.",
".;;$OOOOOOO$.-<<--OOO.XXXXXXXXXXXXXXXXXX$.-<<--OOO.OOOOOOOOO$XX.",
".;&XXXXXXXX$.-<<--OOO.XXXXXXXXXXXXXXXXXX$.-<<--OOO.XXXXXXXXXX$X.",
".&XXXXXXXXX$..........XXXXXXXXXXXXXXXXXX$..........XXXXXXXXXXX$.",
".............-<<--OOO.....................-<<--OOO.............."
};
