/* XPM */
static char *result[] = {
/* columns rows colors chars-per-pixel */
"64 64 22 1 ",
"  c #000008",
". c gray12",
"X c #3B0700",
"o c #002300",
"O c #003B00",
"+ c gray20",
"@ c #4B0B00",
"# c #5F1700",
"$ c #731F00",
"% c #005300",
"& c #006B00",
"* c #434343",
"= c #535353",
"- c gray39",
"; c #872F00",
": c #9B3B00",
"> c #AF4F00",
", c #EB6300",
"< c #008300",
"1 c #009B00",
"2 c #00B300",
"3 c #979797",
/* pixels */
"................................................................",
".--------------------------------------------------------------.",
".-===++++==============================================++++===+.",
".-=*++*+..********************************************++*+..**+.",
".-=++*-.+.+******************************************++*-.+.+*+.",
".-=+*-.-*.+******************************************+*-.-*.+*+.",
".-=++.-*+.+******************************************++.-*+.+*+.",
".-=+.+*+..+******************************************+.+*+..+*+.",
".-=*.....+********************************************.....+**+.",
".-=**++++**********************************************++++***+.",
".-=***********************************************************+.",
".-=********..........................................*********+.",
".-=********.========================================.*********+.",
".-=********.=**************************************+.*********+.",
".-=********.=**************************************+.*********+.",
".-=********.=**+++++++++++++++++++++++++++++++++***+.*********+.",
".-=********.=*+++++++++++++++++++++++++++++++++++**+.*********+.",
".-=********.=*++.....-333-    ++++    -333-.....-=*+.*********+.",
".-=********.=*++.....+===+    ++++    +===+.....-=*+.*********+.",
".-=********.=*++......+++.    ++++    .+++......-=*+.*********+.",
".++++++++++.=*++.....-333-    ++++    -333-.....-=*+.++++++++++.",
"............=*++.....+===+    ++++    +===+.....-=*+............",
".oooooooooo.=*++......+++.    ++++    .+++......-=*+.oooooooooo.",
".OOOOOOOOOO.=*++.....-333-    ++++    -333-.....-=*+.OOOOOOOOOO.",
".%%%%%%%%%%.=*++.....+===+    ++++    +===+.....-=*+.%%%%%%%%%%.",
".&&&&&&&&&&.=*++......+++.    ++++    .+++......-=*+.&&&&&&&&&&.",
".<<<<<<<<<<.=*++.....-333-    ++++    -333-.....-=*+.<<<<<<<<<<.",
".1111111111.=*++.....+===+    ++++    +===+.....-=*+.1111111111.",
".2222222222.=*++......+++. .. ++++ .. .+++......-=*+.2222222222.",
".2222222222.=*++.....-333- ++ ++++ ++ -333-.....-=*+.2222222222.",
".2222222222.=*++.....+===+ ++ ++++ ++ +===+.....-=*+.2222222222.",
".2222222222.=*++......+++. ++ ++++ ++ .+++......-=*+.2222222222.",
".2222222222.=*++.....-333- ** ++++ ** -333-.....-=*+.2222222222.",
".2222222222.=*++.....+===+ ** ++++ ** +===+.....-=*+.2222222222.",
".2222222222.=*++......+++. ** ++++ ** .+++......-=*+.2222222222.",
".2222222222.=*++.....-333- == ++++ == -333-.....-=*+.2222222222.",
".1111111111.=*++.                            ...-=*+.1111111111.",
".<<<<<<<<<<.=*++ @XXXXXXXXXXXXXXXXXXXXXXXXXX@ ..-=*+.<<<<<<<<<<.",
".&&&&&&&&&&.=*++@X;########################;X@ .-=*+.&&&&&&&&&&.",
".%%%%%%%%%%.=*++@;>,>>>>>>>>>>>>>>>>>>>>>>,>;@ .-=*+.%%%%%%%%%%.",
".OOOOOOOOOO.=*++@;:>>>>>>>>>>>>>>>>>>>>>>>>:;@ .-=*+.OOOOOOOOOO.",
".oooooooooo.=*++@;$########################$;@ .-=*+.oooooooooo.",
"............=*++@X;########################;X@ .-=*+............",
".---------*.=*++X@XXXXXXXXXXXXXXXXXXXXXXXXXX@X .-=*+.---------+.",
".-=********.=*++ X@@@@@@@@@@@@@@@@@@@@@@@@@@X ..-=*+.*********+.",
".-=********.=*++.                            ...-=*+.*********+.",
".-=********.=*++......+++.    ++++    .+++......-=*+.*********+.",
".-=********.=**+++++++++++++++++++++++++++++++++==*+.*********+.",
".-=********.=***=================================**+.*********+.",
".-=********.=**************************************+.*********+.",
".-=********.=**************************************+.*********+.",
".-=********.=+++++++++++++++++++++++++++++++++++++++.*********+.",
".-=********..........................................*********+.",
".-=*********++++++++++++.++**---***+++++.+++++++++++**********+.",
".-=**++++***************.++**---***+++++.++************++++***+.",
".-=*++*+..**************.................++***********++*+..**+.",
".-=++*-.+.+*************.++**---***+++++.++**********++*-.+.+*+.",
".-=+*-.-*.+*************.++**---***+++++.++**********+*-.-*.+*+.",
".-=++.-*+.+*************.................++**********++.-*+.+*+.",
".-=+.+*+..+*************.++**---***+++++.++**********+.+*+..+*+.",
".-=*.....+**************.++**---***+++++.++***********.....+**+.",
".-=**++++***************.................++************++++***+.",
".-++++++++++++++++++++++.++**---***+++++.++++++++++++++++++++++.",
".........................++**---***+++++........................"
};
