/* XPM */
static char *result[] = {
/* columns rows colors chars-per-pixel */
"64 64 24 1 ",
"  c #000008",
". c gray6",
"X c #121215",
"o c #18181A",
"O c gray12",
"+ c #171D26",
"@ c #0B1B33",
"# c #1A2330",
"$ c #1D283B",
"% c gray13",
"& c gray15",
"* c #2D2D2D",
"= c gray20",
"- c #3A3A3A",
"; c #132B4B",
": c #202D45",
"> c #23334E",
", c #1B3767",
"< c #23437F",
"1 c #434343",
"2 c #535353",
"3 c gray39",
"4 c #2B5397",
"5 c gray53",
/* pixels */
" oO&&**=---==***&&&%O..+#$:>$#+X oO&&**=---==***&&&%O..+#$:>$#+X",
" oO==11255322111===&O..@;,<4,;@  oO==11255322111===&O..@;,<4,;@ ",
" oO==11255322111===&O..@;,<4,;@  oO==11255322111===&O..@;,<4,;@ ",
" oO==11255322111===&O..@;,<4,;@  oO==11255322111===&O..@;,<4,;@ ",
" oO==11255322111===&O..@;,<4,;@  oO==11255322111===&O..@;,<4,;@ ",
" oO==11255322111===&O..@;,<4,;@  oO==11255322111===&O..@;,<4,;@ ",
" oO&&**=---==***&&&%O..+#$:>$#+X oO&&**=---==***&&&%O..+#$:>$#+X",
"                                                                ",
" oO&&**=---==***&&&%O..+#$:>$#+X oO&&**=---==***&&&%O..+#$:>$#+X",
" oO==11255322111===&O..@;,<4,;@  oO==11255322111===&O..@;,<4,;@ ",
" oO==11255322111===&O..@;,<4,;@  oO==11255322111===&O..@;,<4,;@ ",
" oO==11255322111===&O..@;,<4,;@  oO==11255322111===&O..@;,<4,;@ ",
" oO==11255322111===&O..@;,<4,;@  oO==11255322111===&O..@;,<4,;@ ",
" oO==11255322111===&O..@;,<4,;@  oO==11255322111===&O..@;,<4,;@ ",
" oO&&**=---==***&&&%O..+#$:>$#+X oO&&**=---==***&&&%O..+#$:>$#+X",
"                                                                ",
" oO&&**=---==***&&&%O..+#$:>$#+X oO&&**=---==***&&&%O..+#$:>$#+X",
" oO==11255322111===&O..@;,<4,;@  oO==11255322111===&O..@;,<4,;@ ",
" oO==11255322111===&O..@;,<4,;@  oO==11255322111===&O..@;,<4,;@ ",
" oO==11255322111===&O..@;,<4,;@  oO==11255322111===&O..@;,<4,;@ ",
" oO==11255322111===&O..@;,<4,;@  oO==11255322111===&O..@;,<4,;@ ",
" oO==11255322111===&O..@;,<4,;@  oO==11255322111===&O..@;,<4,;@ ",
" oO&&**=---==***&&&%O..+#$:>$#+X oO&&**=---==***&&&%O..+#$:>$#+X",
"                                                                ",
" oO&&**=---==***&&&%O..+#$:>$#+X oO&&**=---==***&&&%O..+#$:>$#+X",
" oO==11255322111===&O..@;,<4,;@  oO==11255322111===&O..@;,<4,;@ ",
" oO==11255322111===&O..@;,<4,;@  oO==11255322111===&O..@;,<4,;@ ",
" oO==11255322111===&O..@;,<4,;@  oO==11255322111===&O..@;,<4,;@ ",
" oO==11255322111===&O..@;,<4,;@  oO==11255322111===&O..@;,<4,;@ ",
" oO==11255322111===&O..@;,<4,;@  oO==11255322111===&O..@;,<4,;@ ",
" oO&&**=---==***&&&%O..+#$:>$#+X oO&&**=---==***&&&%O..+#$:>$#+X",
"                                                                ",
" oO&&**=---==***&&&%O..+#$:>$#+X oO&&**=---==***&&&%O..+#$:>$#+X",
" oO==11255322111===&O..@;,<4,;@  oO==11255322111===&O..@;,<4,;@ ",
" oO==11255322111===&O..@;,<4,;@  oO==11255322111===&O..@;,<4,;@ ",
" oO==11255322111===&O..@;,<4,;@  oO==11255322111===&O..@;,<4,;@ ",
" oO==11255322111===&O..@;,<4,;@  oO==11255322111===&O..@;,<4,;@ ",
" oO==11255322111===&O..@;,<4,;@  oO==11255322111===&O..@;,<4,;@ ",
" oO&&**=---==***&&&%O..+#$:>$#+X oO&&**=---==***&&&%O..+#$:>$#+X",
"                                                                ",
" oO&&**=---==***&&&%O..+#$:>$#+X oO&&**=---==***&&&%O..+#$:>$#+X",
" oO==11255322111===&O..@;,<4,;@  oO==11255322111===&O..@;,<4,;@ ",
" oO==11255322111===&O..@;,<4,;@  oO==11255322111===&O..@;,<4,;@ ",
" oO==11255322111===&O..@;,<4,;@  oO==11255322111===&O..@;,<4,;@ ",
" oO==11255322111===&O..@;,<4,;@  oO==11255322111===&O..@;,<4,;@ ",
" oO==11255322111===&O..@;,<4,;@  oO==11255322111===&O..@;,<4,;@ ",
" oO&&**=---==***&&&%O..+#$:>$#+X oO&&**=---==***&&&%O..+#$:>$#+X",
"                                                                ",
" oO&&**=---==***&&&%O..+#$:>$#+X oO&&**=---==***&&&%O..+#$:>$#+X",
" oO==11255322111===&O..@;,<4,;@  oO==11255322111===&O..@;,<4,;@ ",
" oO==11255322111===&O..@;,<4,;@  oO==11255322111===&O..@;,<4,;@ ",
" oO==11255322111===&O..@;,<4,;@  oO==11255322111===&O..@;,<4,;@ ",
" oO==11255322111===&O..@;,<4,;@  oO==11255322111===&O..@;,<4,;@ ",
" oO==11255322111===&O..@;,<4,;@  oO==11255322111===&O..@;,<4,;@ ",
" oO&&**=---==***&&&%O..+#$:>$#+X oO&&**=---==***&&&%O..+#$:>$#+X",
"                                                                ",
" oO&&**=---==***&&&%O..+#$:>$#+X oO&&**=---==***&&&%O..+#$:>$#+X",
" oO==11255322111===&O..@;,<4,;@  oO==11255322111===&O..@;,<4,;@ ",
" oO==11255322111===&O..@;,<4,;@  oO==11255322111===&O..@;,<4,;@ ",
" oO==11255322111===&O..@;,<4,;@  oO==11255322111===&O..@;,<4,;@ ",
" oO==11255322111===&O..@;,<4,;@  oO==11255322111===&O..@;,<4,;@ ",
" oO==11255322111===&O..@;,<4,;@  oO==11255322111===&O..@;,<4,;@ ",
" oO&&**=---==***&&&%O..+#$:>$#+X oO&&**=---==***&&&%O..+#$:>$#+X",
"                                                                "
};
