/* XPM */
static char *result[] = {
/* columns rows colors chars-per-pixel */
"64 64 12 1 ",
"  c gray6",
". c #181818",
"X c gray12",
"o c #222222",
"O c gray15",
"+ c gray16",
"@ c #2D2D2D",
"# c gray20",
"$ c #434343",
"% c #535353",
"& c gray39",
"* c #777777",
/* pixels */
"$$$$$$$$$$$$$$$$$$$$$$$$$$$$$$$$$$$$$$$$$$$$$$$$$$$$$$$$$$$$$$$$",
"$%%%%%%%%%%%%%%%%%%%%%%%%%%%%%%%%%%%%%%%%%%%%%%%%%%%%%%%%%%%%%%#",
"$%%%%%%%%%%%%%%%%%%%%%%%%%%%%%%%%%%%%%%%%%%%%%%%%%%%%%%%%%%%%%%#",
"$%%%%%%%%%%%%%%%%%%%%%%%%%%%%%%%%%%%%%%%%%%%%%%%%%%%%%%%%%%%%%%#",
"$%%%%%%%%%%%%%%%%%%%%%%%%%%%%%%%%%%%%%%%%%%%%%%%%%%%%%%%%%%%%%%#",
"$%%%%%%%%%%%%%%%$$$$$$$$$$$$$$$$$$$$$$$$$$$$$$$$%%%%%%%%%%%%%%%#",
"$%%%%%%%%%%%%%%$################################$%%%%%%%%%%%%%%#",
"$%%%%%%%%%%%%%$#XXXXXXXXXXXXXXXXXXXXXXXXXXXXXXXX#$%%%%%%%%%%%%%#",
"$%%%%%%%%%%%%$#X################################X#$%%%%%%%%%%%%#",
"$%%%%%%%%%%%$#X@@@@@@@@@@@@@@@@@@@@@@@@@@@@@@@@@@X#$%%%%%%%%%%%#",
"$%%%%%%%%%%$#XOO#################################OX#$%%%%%%%%%%#",
"$%%%%%%%%%$#XOO###################################OX#$%%%%%%%%%#",
"$%%%%%%%%$#XOO#####################################OX#$%%%%%%%%#",
"$%%%%%%%$#Xoo+++++++++++++++++++++++++++++++++++++++oX#$%%%%%%%#",
"$%%%%%%$#XXXXXXXXXXXXXXXXXXXXXXXXXXXXXXXXXXXXXXXXXXXXXX#$%%%%%%#",
"$%%%%%$#X..                                           .X#$%%%%%#",
"$%%%%$#X##%%%%%%%%%%%%%%%%%%%%%%%%%%%%%%%%%%%%%%%%%%%%%#X#%%%%%#",
"$%%%%$#X@@$$$$$$$$$$$$$$$$$$$$$$$$$$$$$$$$$$$$$$$$$$$$$@X*&%%%%#",
"$%%%%$#XOO#############################################OX*&%%%%#",
"$%%%%$#XOO#############################################OX*&%%%%#",
"$%%%%$#XOO#############################################OX*&%%%%#",
"$%%%%$#Xoo+++++++++++++++++++++++++++++++++++++++++++++oX*&%%%%#",
"$%%%%$#XXXXXXXXXXXXXXXXXXXXXXXXXXXXXXXXXXXXXXXXXXXXXXXXXX*&%%%%#",
"$%%%%$#X..                                             .X*&%%%%#",
"$%%%%$#X##%%%%%%%%%%%%%%%%%%%%%%%%%%%%%%%%%%%%%%%%%%%%%#X*&%%%%#",
"$%%%%$#X@@$$$$$$$$$$$$$$$$$$$$$$$$$$$$$$$$$$$$$$$$$$$$$@X*&%%%%#",
"$%%%%$#XOO#############################################OX*&%%%%#",
"$%%%%$#XOO#############################################OX*&%%%%#",
"$%%%%$#XOO#############################################OX*&%%%%#",
"$%%%%$#Xoo+++++++++++++++++++++++++++++++++++++++++++++oX*&%%%%#",
"$%%%%$#XXXXXXXXXXXXXXXXXXXXXXXXXXXXXXXXXXXXXXXXXXXXXXXXXX*&%%%%#",
"$%%%%$#X..                                             .X*&%%%%#",
"$%%%%$#X##%%%%%%%%%%%%%%%%%%%%%%%%%%%%%%%%%%%%%%%%%%%%%#X*&%%%%#",
"$%%%%$#X@@$$$$$$$$$$$$$$$$$$$$$$$$$$$$$$$$$$$$$$$$$$$$$@X*&%%%%#",
"$%%%%$#XOO#############################################OX*&%%%%#",
"$%%%%$#XOO#############################################OX*&%%%%#",
"$%%%%$#XOO#############################################OX*&%%%%#",
"$%%%%$#Xoo+++++++++++++++++++++++++++++++++++++++++++++oX*&%%%%#",
"$%%%%$#XXXXXXXXXXXXXXXXXXXXXXXXXXXXXXXXXXXXXXXXXXXXXXXXXX*&%%%%#",
"$%%%%$#X..                                             .X*&%%%%#",
"$%%%%$#X##%%%%%%%%%%%%%%%%%%%%%%%%%%%%%%%%%%%%%%%%%%%%%#X*&%%%%#",
"$%%%%$#X@@$$$$$$$$$$$$$$$$$$$$$$$$$$$$$$$$$$$$$$$$$$$$$@X*&%%%%#",
"$%%%%$#XOO#############################################OX*&%%%%#",
"$%%%%$#XOO#############################################OX*&%%%%#",
"$%%%%$#XOO#############################################OX*&%%%%#",
"$%%%%$#Xoo+++++++++++++++++++++++++++++++++++++++++++++oX*&%%%%#",
"$%%%%$#XXXXXXXXXXXXXXXXXXXXXXXXXXXXXXXXXXXXXXXXXXXXXXXXXX*&%%%%#",
"$%%%%$#X..                                             .X*&%%%%#",
"$%%%%%&*X##%%%%%%%%%%%%%%%%%%%%%%%%%%%%%%%%%%%%%%%%%%%#X*&%%%%%#",
"$%%%%%%&*X@@$$$$$$$$$$$$$$$$$$$$$$$$$$$$$$$$$$$$$$$$$@X*&%%%%%%#",
"$%%%%%%%&*XOO#######################################OX*&%%%%%%%#",
"$%%%%%%%%&*XOO#####################################OX*&%%%%%%%%#",
"$%%%%%%%%%&*XOO###################################OX*&%%%%%%%%%#",
"$%%%%%%%%%%&*Xoo+++++++++++++++++++++++++++++++++oX*&%%%%%%%%%%#",
"$%%%%%%%%%%%&*XXXXXXXXXXXXXXXXXXXXXXXXXXXXXXXXXXXX*&%%%%%%%%%%%#",
"$%%%%%%%%%%%%&*X..                             .X*&%%%%%%%%%%%%#",
"$%%%%%%%%%%%%%&*XXXXXXXXXXXXXXXXXXXXXXXXXXXXXXXX*&%%%%%%%%%%%%%#",
"$%%%%%%%%%%%%%%&********************************&%%%%%%%%%%%%%%#",
"$%%%%%%%%%%%%%%%&&&&&&&&&&&&&&&&&&&&&&&&&&&&&&&&%%%%%%%%%%%%%%%#",
"$%%%%%%%%%%%%%%%%%%%%%%%%%%%%%%%%%%%%%%%%%%%%%%%%%%%%%%%%%%%%%%#",
"$%%%%%%%%%%%%%%%%%%%%%%%%%%%%%%%%%%%%%%%%%%%%%%%%%%%%%%%%%%%%%%#",
"$%%%%%%%%%%%%%%%%%%%%%%%%%%%%%%%%%%%%%%%%%%%%%%%%%%%%%%%%%%%%%%#",
"$%%%%%%%%%%%%%%%%%%%%%%%%%%%%%%%%%%%%%%%%%%%%%%%%%%%%%%%%%%%%%%#",
"$###############################################################"
};
