/* XPM */
static char *result[] = {
/* columns rows colors chars-per-pixel */
"64 64 76 1 ",
"  c #191919",
". c gray10",
"X c #1B1B1B",
"o c gray11",
"O c #1D1D1D",
"+ c #1E1E1E",
"@ c gray12",
"# c #202020",
"$ c gray13",
"% c #222222",
"& c #232323",
"* c gray14",
"= c #252525",
"- c gray15",
"; c #272727",
": c #282828",
"> c gray16",
", c #2A2A2A",
"< c gray17",
"1 c #2C2C2C",
"2 c #2D2D2D",
"3 c gray18",
"4 c #2F2F2F",
"5 c gray19",
"6 c #313131",
"7 c #323232",
"8 c gray20",
"9 c #343434",
"0 c #353535",
"q c gray21",
"w c #373737",
"e c gray22",
"r c #393939",
"t c #3A3A3A",
"y c gray23",
"u c #3C3C3C",
"i c gray24",
"p c #3E3E3E",
"a c #3F3F3F",
"s c gray25",
"d c #414141",
"f c gray26",
"g c #434343",
"h c #444444",
"j c gray27",
"k c #464646",
"l c gray28",
"z c #484848",
"x c #494949",
"c c gray29",
"v c #4B4B4B",
"b c #4C4C4C",
"n c gray30",
"m c #4E4E4E",
"M c gray31",
"N c #505050",
"B c #515151",
"V c gray32",
"C c #535353",
"Z c gray33",
"A c #555555",
"S c #565656",
"D c gray34",
"F c #585858",
"G c gray35",
"H c #5A5A5A",
"J c #5B5B5B",
"K c gray36",
"L c #5D5D5D",
"P c gray37",
"I c #5F5F5F",
"U c #606060",
"Y c gray38",
"T c gray39",
"R c #646464",
"E c gray40",
/* pixels */
"CMMd;998<<72,snJc4,,,5qpe***=**<   ***X+$8plzvcnmNNmTPZl$oo@>>*x",
"CSdlpap8,,4<<>dufp<5rwgi$=*<>>=&< =**@oO$6rhfaxmmmmCmPca#oo,&iMC",
"Sdkspdis#,,i>2;>pp5zhcv&#+3-=o-=&=**&*OO=7tagxxmmcAMGxc-@o%,dNHC",
"fzkpkkf++,ri7>;;pxzhjvc***&=-%%=&@+&*=&o660pufmGSSZJcf,>O&<dmDLC",
"llsrr*,@@qqy5if45tlzjvf*=*=--=o%#@X+=%@o44iiyfHDUADcfq=#O<5wSHJm",
"ldqe*&o@wqq5hgxt66rzvg***=*<-=%+ooo@=*XX*gaaafUUDLkj,&#=<;fxHHDj",
"a5w==O@=*qqkfgjrt65ttp*;51117=+o$#+*-*+@&hf0hfmNJkl,&@*==5kDCCnk",
"4*#=OO+@==tmmgjwww5wt**,r129:+@O$;32--+&phdqayNkhj-;-%88626DMm99",
"$##=OXo@@*kmamkkww5q**#&2327:+++5643--@&ajbclxffs;>==8NAe1kfxw9&",
"#+#=ooO@*scnafjjjwq*=#O;34q9+O@0k673&*+uaMnhMap;>>==8bCAn:%fw&>%",
"O$;@:##=*sx9fffjjq=*@#&165q<@+$zjj6r&@@ugCn2si;>==88bDGH8:%&&&&.",
"O#f0,@#*ssgtt0tt==*##O,4yq<<&%+slkpr1@X1fnp>:*=**8uccHCZNh@o+%%&",
"&fNu;$@<pp6tr002>:*#O*<8szw<,%Oslkut1XX1hju=$&*,ubSDCaCCJj@OX;%&",
";NNy2&=&::22t26=--$O#,6qdvzww%@ykhu1,X+&wh>##$>5bSSDcaCZHD3O+.@*",
"3NBw6&%%>,>:>:==-$$#@33wabkke%O@j3y1%X&64:&$@*<5BDSmcccCHD4-O.O#",
"5MNg2&#$;-=-=-===$**2,39axvhh,+X=34,o@<>-:&$#*:6rDcmxccxPNf-@.X-",
"6jbz6$++$;;*=*=*#$&233%qacchjfOO@44Xo@;*=44$#--2<fxxxcxxAns>*.oo",
"8jbn7-$+===-=***$&*,346xmmvvff@+O5==O%*=:mi$#=-;:qxzzzxxAns>=oO#",
"kjnvq:%%;;=--**$$&11248xVNnvff+@X%%#<;=*1Cn#*-=-:,fxxzxcZda>*o=:",
"jjCvn3&&<<<=-<><&>>22O:dCNmcck2O+O%<<e:>wLGb*-=--,qaxtcxvds>=#,8",
"mjZCH6-=37ygh8;=*<>23O&pjZmxnff=#+%<1w=>,pAVv==;:-3fa9rtkdd==#68",
"mmSTm6,=329t9,,;::67;$&2kSDmNgk::*$<rw->,,hZDu----;0a996lfd=*&6p",
"acmUSa,-$$8s62,,,9qq,>%<uvSNNgh7=3=12q=yptdkBn%;:>:2722gkd==*#9a",
"tSGUSc,$22ismhjjjjk753.*ivDCNxc:=-1&1,wippkyBqwqriyyw844k*=*@,2r",
"LTTDz5>2259LGKGGSDGSsw>;6hSCBxc:=-2&&,qri5Vdypddxctere01,>:>%32x",
"LKHi122ra8NASbjgffvYPa,==jDSANj@--2,=%,tiyxkkkjjbvcxxtq63:<6<4qz",
"j951w00diavnavaaapxNRTp=*>jSCm=@*,q,$-X;utNZCzjkcvxzzkg6:<<377@$",
":113;4ytyzdabvpaaxNNRTn8*>9SA-*@+qr8:&X$;ypNZlzjvxxxzk9<2252y+OO",
":%1&<*ttyaafbbfpcNNNBJJ8=*6Du==X@<cdp%%o;2pNIBgfkBzzjj<32aa* ++O",
":%o&**@t2akgkhfcmNNNBJJp1*,4-*%+*gMMd4%o<>>iZJBgkzzkj5<3aa**+O+O",
"*#O*=#@;akhfkvvcNNNNNTTF8*%%-=+@<MMMd1>%<<3>bLJmlhzk53<paa=*OO+O",
" O2=*#*-wfhkxvvmNNNBHTEP>#+$%@@<eMMMet:p<<3:,sHNNh5,5:waa==*OO+O",
"o,12=#*:9pazzvcmmNNmTPCk$oo@>>*cCMMd:998<<63,snKx5>,,5qaa***O+++",
"o%21<#*;9tthfacmmmmCmLca#OO,&pMZCDdkiap8,,5<<>dufp<6rwha*=*+++OO",
"%%req=*-9taafccnmcAMGxc-#o%,dNHCSdkspdps#,,i>2;>pi6lhvv=***O+O:O",
"::r8q2==<qrayfmHSSZJcg,>o&<dmDLCfzkikkg+@,ti7>-;iczhjvv*=* ++:::",
"+;O8g<*=&60pufHSUADxfq*#O<6wAGJMllser*,@+qqt5if56tzzhvg**= +::;;",
"+O+7ry*$%<0aafUUDPlj,&#*1-fzGGSjldqr*&o@wqq5ggzr65rzcg*=* O::;::",
"+O+rtt<$$,r6hfmNHkl,*@===6jDCCnja5w**o+=*qqkfghrt65rta***+:22::O",
"OO+:rt##$;<6auNkhj=;;%88616SMm994*#*OO@@*=rmmgkwww5et**=O:26;::=",
"OOO :*###ruclxffs;>*=8BZr1jfxw9%$##*OXo+@=knamjjww5q**#+;36262;*",
"+++ +*#$$rtsMap;>>*=8vCZn;%fw&:%#+#*oXo@=sxmpfilkte*=@O%;5262:*=",
"+O+  =%$$tt;su;>**88cBmV8:%&&&%XO$;@:##*=sc9gzcvNnft>=;>445:;-*=",
"+++ w <%>;*-:=->2thxkfpvNh@o+%%&O#f0,##=ssgyhxBNSFh66,rw062;-;*=",
"++7vvBp:,>,;*8azmmDzlqrnJh+OX;%&*fBu:$@<pp8akxmZDv8718iydj0<>&%1",
"2eu0utq27i<:tjnBFFDDkjwxHS3O@.@&;NNy3&*&::0scBAVf781pimafbzww%+t",
"f3u3&+-64:::kNmDFFFNNjujJF3-oXO#3NNq6&%&>,4dVANl68=ipByypvkle%+@",
"-33,X@<>-::lNDZFFFBNNNfuLNf;@.o-6MNg3&#$;;:uNZd6<&>*ixyaaxvhh,+o",
"@33XX@-*=,mMSzCDFBBBNNmiNna>=.Oo5jnz6$++$;-4vyt<%#@1uzyaacvhhf++",
"+5**+%==;nmMxzkFBaaBNklibns:*Oo#7jnn7=$+*-=;fe2-:&>>phmVmmcvff@O",
"X%%@<;**1VCdllxfrreaakapzds>*o=;jjbcq;&%;:--4>>=5&q78iCmVNnvff+@",
"++%<<e:>wLPdzdx0rwlaakfusas>=#,8kjCvb3&&<<1-->-,lBq6*21jCNmcck2o",
"#+&<1w->,iZCVxy69iipptffiad**#68mjCCH6=-37ugs;:fnVbe521jjCncmfg-",
":=$<ew=>,,gpyuu:<7888wkfgud*=&6ammSTm6,-339r7tMnBBHd4=28kSDmNhj;",
"-4*<1q*tpypuuvnpggfnxxweft:*=@9apcmUSa,-$$9s7jADfmHkd,18ivANNhh7",
"==2&1,wippxvvDCZvvvmffeww01*@,2ttSGIDc,$22usmMSfcmHTd,=8pvSCNcx:",
"==1&*,wtu4ADczjjbbytrrw434:*#22xLTRSx6>2269PGZyaaxSTl4*>7hSCBcc;",
"==1,=%,ritxScljjbvcxxtw63;%# 2cPPPJp121uf5ZHKnaaapxTTs>**jSSANj#",
"=,q,$-X;utNSCzkjvvzzxjg6>-.  lkmCe71aannj8nZCBaapacNRTi==>kSZm=@",
"+qt7:%X$;ypNAkljccxzlk9<1&   dkm94,aCTHH88hvmnpaacNNRTn8*>9SA==+",
"+<cdp%%O;2pNIBgflBzljk<21:oXoX1::ifATHHmi8hbnbfaxNNNBHH8=*6Di*=X",
"*fMMd4%o<>>pZKBgklzkk5<3y*XXX@@=taVDCkjjk4ffchfxmNNNBHJp1*,3;*%@",
"1MMMd2:%<<2>nPJmljzl53<at*XX@+$q0g6f5rddd2ssjbvxNNNNNTTF8=&%;*@@",
"rMMMer>p<<3>,sHNNh5,5;wau+@@+$@0777XXXXXXo0rfvcmNNNVHTEP>#+$%++<"
};
