/* XPM */
static char *result[] = {
/* columns rows colors chars-per-pixel */
"64 64 69 1 ",
"  c gray12",
". c #202020",
"X c gray13",
"o c #222222",
"O c #232323",
"+ c gray14",
"@ c #252525",
"# c gray15",
"$ c #272727",
"% c #282828",
"& c gray16",
"* c #2A2A2A",
"= c gray17",
"- c #2C2C2C",
"; c #2D2D2D",
": c gray18",
"> c #2F2F2F",
", c gray19",
"< c #313131",
"1 c #323232",
"2 c gray20",
"3 c #343434",
"4 c #353535",
"5 c gray21",
"6 c #373737",
"7 c gray22",
"8 c #393939",
"9 c #3A3A3A",
"0 c gray23",
"q c #3C3C3C",
"w c gray24",
"e c #3E3E3E",
"r c #3F3F3F",
"t c gray25",
"y c #414141",
"u c gray26",
"i c #434343",
"p c #444444",
"a c gray27",
"s c #464646",
"d c gray28",
"f c #484848",
"g c #494949",
"h c gray29",
"j c #4B4B4B",
"k c #4C4C4C",
"l c gray30",
"z c #4E4E4E",
"x c gray31",
"c c #505050",
"v c #515151",
"b c gray32",
"n c #535353",
"m c gray33",
"M c #555555",
"N c #565656",
"B c gray34",
"V c #585858",
"C c gray35",
"Z c #5A5A5A",
"A c #5B5B5B",
"S c gray36",
"D c #5D5D5D",
"F c gray37",
"G c #5F5F5F",
"H c #606060",
"J c gray39",
"K c #646464",
"L c gray40",
/* pixels */
"       XXXXOOOO          &&&&&&>   &&&XOOOOO@@@@@@@@  &&&& &&&& ",
"   *  X--XXXOOO OOO      &&>;;*%> &&&+oo@,,4@@@@@@&&@==&&& &&&& ",
"  ***X----XXXO OOOOOOOOOOO<**o**%&&&%&oo&33382;&@&&%%====& &&&&&",
" ***X-----.&666<<<<<&&&&&&%**$$*%++%&*$o33320ile<&%%%;====&&&&&&",
"***OX----O#$6qq333553<&&&&&***o$@@X+&$+X11a22hfl4,;=OO-==&&&&&&&",
"*22448--OO$<pppq77773<<&&&&>**$+ooX+*%XX%asshNhl8:>><<3-&&&&&&&&",
" 244888OOO&fppsff07766414,,>4*Oo#@+&*%++%sdmgBjr73363<33-&&&&&&&",
"  4ee8y$OOuzcssffffvjpppy,<6-O+O#=1<**+%ysjmkjw290q666<3--&&&&&&",
" Oeiee$$O,hmc66qflnBBjhy<1<4-O++3311**+%ysbjBk223tty6643---&&&&&",
" eiid6#O&,mMMp<llvNBmvvg1286+O+7f341%%+rycnMl<2th0gsy64:----&&&&",
"weida2XO=mmVvxllmBBmttvt328>++#gdd4q%++ramng<2:jhdgs77<:3----&&&",
"2eiaw$.+*bbbvxnvBCd55,ttr8>>%$+ufdtq,+X,pzsu<:jjmxxdp77<:3----&&",
"24eawOX+pnnghjxmVk55,5twpg9>:$Oufdeq,XX,ssg<;tjxvxVgf777::-----&",
" 20w>+++fcbflbNnp55,ttxyplg99$+efae,:X+%9s,;efzbVVVVfd771::-O--&",
" &-<&++&cvmlmNvg35&ttveeylff0$O+d1e,$X%32---fvxVVVVvvde771::OO--",
" O=<*&+&vmBnmMi3>%;&theyyjkss:OX*11:X+>;*--fvBmVVVbvvvp771::<4OO",
" O=&@&&7BBBbmwq>$@@,rheyyjksspOO+11XX+=&&:xcBgmBVbbbvvxe711:<44O",
" X*&&&%tgvjbnq<*-%;;tsxnxxkkpp+OO2&&O$&&-zxcjgfVbyybvffee71:<444",
"OXO**,+1s0znq;;*2%845rmxnvxkpp++X$$@>-&&,nmigfhpq00uyfyyee1:<444",
"OXO+&:=>1ivw;;*:gb84&,,dmvxjjd,oOO$>>0-;9DFigij709fyydpee7714444",
"ooO+&1=>>sw;;*-pzbl02<,ddmxjxpp*@+$>,9*;:tmmnhw36trttqppee& 444O",
"@$O&$1*>>;<;-yczbbAi2*,5dNBxvad--&#>09*;::ateee->45559dppqq OOOO",
"@;,&:12<$,%&yzNBpxAfi:,5rkNvvas4*1&>,8&wtwyeekztpapxjh99pqyyOOOO",
"@;,,,q>,&$#ecmBpjxZJi:&5tkBmvjj-**,%,:8rtthkkBmMkkkxpp0988yy4OOO",
";:,,,q=,@%rtmvqyyjBJf2&;5sBmbjj-**,%%:8qr2MBjgddllwqqq82133y44OO",
";$,,,q*#@tpjzayyyyjJJu;&&dBBMvd@**,:*$:qrwjBjgddlkjhhq831->644OO",
"-,,,,>#qwpkzylyyyyjvKJt&&;dBmx*+&:8:#*X=rwvNmgddkkhhhda3;>><44OO",
"-,,,%>wqwgiyllyyyjvvKJz5&;6BN*&++8q5-$X#=wtvMfgdkjhhgd6><<3<eOOO",
"-$,%>&qqeyypllpyjvvvbAA5&&3Br&&X+>jit$$o=<tvGbapfbhgdd><<yy& OOO",
"-$o%&&@w,yfpfspjxvvvbAAt,&:1=&$+&pcci2$o>;;tMSbafggdd2><yy&&OOOO",
"&@o&&@@=yfspflkjvvvvvJJC5&$$=&++>ccci,;$>><;zFSxfsgf21>yyy&&OOOO",
" O,&&@&=8psfhkkxvvvbAJLF;@O#$++>0ccc0q;t>>1;:uZvvs2:2-8yy&&&OOOO",
"o:,<&@&-6yyggkjxxvvxJFmf#oo+;;&jmcci-665>>4<:uzSj2:::38yy&&&OOOO",
"o$<,>@&=6qwspyjxxxxmxFjy@oo:%tcmmBiftyt5::2>>;iept>3q9ay&&&OOOOO",
"$$q08&&*6qyypjjxxjNcZjj=@o$:ivZmBifutitu@::r;<=;tt3gskk&&&&OOO-O",
"--058<&*>8qyepxZBBmAjp:;o%>ixVDmpgftffp++:qr4;==tjgsskk&&& OO---",
"O-O5a>&*%37yepZBHNBjp8&@O>39NZAcggu00&:++88w2rp23qggska&&& O----",
"OOO4qw&#$>7yypHHBFfd:%@&>=phZZBdgi80&%o+8883aahq33qgka&&& O-----",
"OOO0qq>##:q4spxvAdf:%@&&*3dBmmzdy29&&o+&&88dpasqq33qqy&&&O-<<--O",
"OOO-qq@@#->4yevfsd*==$553,3Bcx661%@&OO++&&qxxad99929q&&&O-<3---&",
"OOO -&@@@qejfhppu=;&&5vM0,dph96$#@@&OXo++&fxyxdd9928&&@O-<3<3<-&",
"OOO O&@##qqucyt=;;&&5lmMz-$p9%;$@O@&oXo+&ujxypddd98&&@o$-3<3<-&&",
"OOO  &$##qq=ur=;&&55lBZZ5-$%%%$.o#-+-@@&&uj6pppdd8&&@@%-113--=&&",
"OOO 9 >$;=&*-&&&&5rkjZmmvs+o+$$%o@p7:@@&uupqq7qq&&&@@O:;111===&&",
"OO4llMi==*&&#%%:rlBVmymmAs+oX-$%%pve-#@>tt3qq77<;-&@O%:111===&&&",
"O4eelAMt*&&@@#;3lBBVjymmAB1O+.@%=vve<%&%--<<q<3***#O@:1143=&&&&&",
"O4eeeDAbq&@@@&>3bBBxjjjmAV1=o.o@1vv83%$$;:;-;-***##@@<<33-&&&&& ",
"O4eehxmAl*@@@&;3qBjxjjjhFvp=+.X*3cva<%@#==****&&*#%%<:<+--&&&&& ",
"O4eehxhAbl@@@**<>phjjjhhMzu;&.oo3dzh3#OO#==&&&&&@#%<11o+-=&&&&  ",
"O4eehvxBDN9@@**=-8hhhhhjMzu;&oo@5dzz4*#O&***&&&&#%%:11;====&&   ",
"O4eexvxBBDk@&**=-:phhhjjMiu;&o*-ddzk8-$$=-***&&##%,,,1=<<===&&  ",
"OeeexxvxBJVl&**==:8yhqjjkiu;&@:5ddmkz1%%>>>**>;>%;;<<o=<<<<=&&  ",
"OeeexxvxxxVnk**=-=1py6qqfii&&@35xdmmZ3**14eas5=*&>;<<o##**<<&&  ",
"@O4ehxvvvvdVVe****-7y664fii&&%3yxxBJx3:*<<6q6::---34-####**<>&  ",
"@O44,rvxvvfhbz#**=*>3<<afi&&&@6yyjxHBy:*##6u3<:::688:;####<<>&  ",
"O 44,df5xv07b4<@&=*-3<<<f&&&@:<qqBZHBj:#<<ruxaddddd111 X==<<>>  ",
"O eedddddd2773<@&&**<<<O&&&&@<<jFJJBh3;<<36FZDDFFFAlee>====<>>  ",
"O  eemmdcbc=w1>+@&&&&OOOO&@@ <jFFFAt,,,ep3MAFFFFFFSvee>=====>&  ",
"OO eehhmlmauee>+@@@@@oOO     ffxm05,yyzzs5zMVSSSSFBspe>====&&&  ",
"OO eeehhhmm3tq$O+@@@ooXoX    ifx62:ynJAZ55slxxvvvxxxjy&X===&&&& ",
"OOOeeehhhhheft++$+OooooXXXXXXX,;-rpNJZZxr5slxxxxvxxjjyXX===  &  ",
"OOO eeehxxekii+++#++ooXXXXXXX++*wynVmdddd2ppxjjjjyjhiXXX===     ",
"OOOOeeeehq4aa1+++#++++XXXXXX++#87a4p3qiii<uuijy&&ye3XXXX===     ",
"OOOOO444qq4444OOOO+++XXXXX+++#+7444XXXXXXX77X      XXXX====     "
};
