/* XPM */
static char *result[] = {
/* columns rows colors chars-per-pixel */
"64 64 30 1 ",
"  c gray9",
". c gray13",
"X c gray15",
"o c #313131",
"O c gray24",
"+ c #3F3F3F",
"@ c #434343",
"# c #464646",
"$ c gray28",
"% c #494949",
"& c #4E4E4E",
"* c #535353",
"= c gray33",
"- c #555555",
"; c #565656",
": c gray36",
"> c gray39",
", c #676767",
"< c gray42",
"1 c #6C6C6C",
"2 c gray43",
"3 c #717171",
"4 c #777777",
"5 c #797979",
"6 c gray50",
"7 c #838383",
"8 c gray52",
"9 c gray53",
"0 c gray55",
"q c #979797",
/* pixels */
"5555555<>&&*>>>>>>>>>>>>>>>>>>>>>>>>>>>>>>>>>>>>>>>>>>>755555555",
"5555555<>&&*>>>>>>>>>>>>>>>>>>>>>>>>>>>>>>>>>>>>>>>>>>>755555555",
"55555555<>&*>>>>>>>>>>>>>>>>>>>>>>>>>>>>>>>>>>>>>>>>>>q555555555",
"55555555<>&&*>>>>>>>>>>>>>>>>>>>>>>>>>>>>>>>>>>>>>>>>>7555555555",
"6666666662>%*>>>>>>>>>>>>>>>>>>>>>>>>>>>>>>>>>>>>>>>>q6666666666",
"6666666662>%%****************************************06666666666",
"66666666662>%%*************************************%q66666666666",
"99999999993>@@@@@@@@@@@@@@@@@@@@@@@@@@@@@@@@@@@@@@@@q99999999993",
"99999999993>@@@@@@@@@@@@@@@@@@@@@@@@@@@@@@@@@@@@@@@@q99999999993",
"q99999999993>@@@@@@@@@@@@@@@@@@@@@@@@@@@@@@@@@@@@@@q99999999993>",
"q99999999993>@@@@@@@@@@@@@@@@@@@@@@@@@@@@@@@@@@@@@@q99999999993>",
"$q99999999993>@@OOO$$$$$$$$$$O$$$$$$$$$$$OO$$$$$$$q99999999993>@",
"$q99999999993>@@$$$$$$$$$o$$OO$$$$$$$$$$$$OO$$$$$$q99999999993>@",
"$$q9999999999>@@@$$$$$$$$Oo$OOO$$$$$$$$$$$$$$$$$$q99999999993>@@",
"$$q99999999993>@@$--$$$$$Oo$OOO$$$$$$$$$-$$$$$$$$q99999999993>@@",
"$$$q9999999993>@@@---$$$$OOOooO$$$$$$$-11---$$$$$q9999999993>@@@",
"$$$q99999999993>@@1--$$$$OOOOoo11--$$$11------$$q99999999993>@@$",
"-11q99999999993>@@1-----$$$$O##1111$-11111-----$q99999999993>@@-",
"1---q99999999993>@@--1-1$$---#=111$--111111----q99999999993>@@1-",
"1-$-q99999999993>@@$-1---$--111111----111111---q99999999993>@@--",
"-1$1-q9999999999>@@@1---1--111111------111111-q99999999993>@@1--",
"1-1-1q99999999993>@@11111-1111111-------111111q99999999993>@@111",
"1-111-q9999999993>@@@111$--1-111111---11111111q9999999993>@@@$11",
"1-1-11q99999999993>@@11111----111111-1111111-q99999999993>@@1111",
"$-11111q9999999993>@@111111---111111111111111q9999999993>@@@1111",
"-111111q9999999999>@@@1111111---111111111111q99999999993>@@11111",
"1111111q99999999993>@@11111111--11111111$-1-q99999999993>@@1111$",
"111$$111q9999999999>@@@1--1111-1111111111-11q9999999993>@@11111$",
"--$$--1-q99999999993>@@---1111-11---111111-q99999999993>@@11111-",
"-$$----11q9999999993>@@11-1----------11111-q9999999993>@@11111--",
"$$1---1-1q99999999993>@@11-----------1-11$q99999999993>@@1111---",
"$-1-11--11q9999999993>@@11----------1---$-q9999999993>@@@1$1--$$",
"---1111--1q9999999999>@@@11----------$$-$q99999999993>@@111--$$$",
"--1-111---q99999999993>@@11----------$$$$q9999999993>@@@11---$$-",
"--11$$$----q9999999999>@@@1---------$$$$oq9999999993>@@11---$$$-",
"----$$$$--$q99999999993>@@$------$$$$$$$q99999999993>@@-1--$$$OO",
"-1-$$OO$$$$$q9999999993>@@$------$$$$$$$q9999999993>@@-11--$$oO#",
"#-$$$OooOO$$q9999999999>@@@--11--%Oo$$$q99999999993>@@-11--$$oo#",
"O$$$$OOoOO$$$q9999999993>@@$--###+oooooq9999999993>@@@##--$$$ooo",
"O$$$$OOoooo$$q9999999999>@@@$O##+Oooooq99999999993>@@+##O$$$$ooo",
"OooOOOOoOoooo$q9999999993>@@$ooooooOOoq9999999993>@@@oooo$$$Oooo",
"OooOooOoooooooq9999999999>@@$oOOOOOoooq9999999993>@@OOOOo$$OOooo",
"OoOOoOooooooooq99999999993>@@OOOOOOOoq9999999993>@@@OOOOO$OoOoo$",
"Oooooooooooooooq9999999993>@@$$$$Ooooq9999999993>@@oO$$$$$OOoooO",
"OOoooooooooooooq9999999999>@@@$$$oOOq9999999993>@@@Oo$$$oOOo$oOO",
"OOOoooooXXooooooq9999999993>@@$$$$ooq9999999993>@@oo$$$$OOOooooO",
"OOOooooXXXXXXoooq9999999999>@@@$$ooq99999999993>@@ooo$$oOOoooooO",
"OOOooooXXXXXXXXXoq9999999993>@@OoOoq9999999993>@@@ooOoOOoooOoooO",
"oOooooXXXX   XXXXq9999999999>@@OoOoq9999999993>@@XooOoOoOooooooo",
"OOOoXXXXX     XXXq9999999999>@@@OOq9999999993>@@@X.oOOOOOoOooooo",
"OoooXXXX      XXooq9999999993>@@oXq9999999993>@@ XXXXooOOOOooooo",
"Xooo  X       XXooq9999999999>@@@q9999999993>@@@ XXXXooOoOoooooX",
"XooX X         XXooq9999999993>@@q9999999993>@@ X  ooooooOooooXX",
"XooX X         XXXXq9999999999>@q9999999993>@@@   ooX XXoooooX X",
"ooXX           X  XXq9999999993>q9999999993>@@   ooXX XXoooXXXXX",
"ooX            X   Xq9999999999>99999999993>@@  ooXX  XoXXX  X X",
"99999qqqqqqqqq999999>q99999999939999999993>:::99999qqqqqqqqqq999",
">>>>>>>>>>>>>>>>>>>>>q99999999999999999993>@*>>>>>>>>>>>>>>>>>>>",
">>>>>>>>>>>>>>>>>>>>>q9999999999999999993>@@*>>>>>>>>>>>>>>>>>>>",
"::::::::::::::::::::::855555555555555555<>@@*:::::::::::::::::::",
"::::::::::::::::::::::85555555555555555<>@@*::::::::::::::::::::",
":::::::::::::::::::::::8555555555555555<>@@*::::::::::::::::::::",
";;;;;;;;;;;;;;;;;;;;;;;422222222222222,>@@@*;;;;;;;;;;;;;;;;;;;;",
"@@@@@@@@@@@@@@@@@@@@@@@@42222222222222,>@@@@@@@@@@@@@@@@@@@@@@@@"
};
