/* XPM */
static char *result[] = {
/* columns rows colors chars-per-pixel */
"64 64 8 1 ",
"  c #434343",
". c gray39",
"X c #777777",
"o c gray53",
"O c #BBBBBB",
"+ c #CBCBCB",
"@ c gray86",
"# c gray92",
/* pixels */
"                                                                ",
"  .XooooooooX.    .XooooooooX.    .XooooooooX.    .XooooooooX.  ",
" .XoO+@##@+OoX.  .XoO+@##@+OoX.  .XoO+@##@+OoX.  .XoO+@##@+OoX. ",
" XoO+@####@+OoX  XoO+@####@+OoX  XoO+@####@+OoX  XoO+@####@+OoX ",
" oO+@######@+Oo  oO+@######@+Oo  oO+@######@+Oo  oO+@######@+Oo ",
" o+@########@+o  o+@########@+o  o+@########@+o  o+@########@+o ",
" o+##########+o  o+##########+o  o+##########+o  o+##########+o ",
" o@##########@o  o@##########@o  o@##########@o  o@##########@o ",
" o@##########@o  o@##########@o  o@##########@o  o@##########@o ",
" o@##########@o  o@##########@o  o@##########@o  o@##########@o ",
" o############o  o############o  o############o  o############o ",
" o############o  o############o  o############o  o############o ",
" o############o  o############o  o############o  o############o ",
" o############o  o############o  o############o  o############o ",
" o############o  o############o  o############o  o############o ",
" o############o  o############o  o############o  o############o ",
" o############o  o############o  o############o  o############o ",
" o############o  o############o  o############o  o############o ",
" o@##########@o  o@##########@o  o@##########@o  o@##########@o ",
" o@##########@o  o@##########@o  o@##########@o  o@##########@o ",
" o@##########@o  o@##########@o  o@##########@o  o@##########@o ",
" o+##########+o  o+##########+o  o+##########+o  o+##########+o ",
" o+##########+o  o+##########+o  o+##########+o  o+##########+o ",
" oO##########Oo  oO##########Oo  oO##########Oo  oO##########Oo ",
" Xo@########@oX  Xo@########@oX  Xo@########@oX  Xo@########@oX ",
" Xo+########+oX  Xo+########+oX  Xo+########+oX  Xo+########+oX ",
" XoO########OoX  XoO########OoX  XoO########OoX  XoO########OoX ",
" .Xo@######@oX.  .Xo@######@oX.  .Xo@######@oX.  .Xo@######@oX. ",
" .Xo+######+oX.  .Xo+######+oX.  .Xo+######+oX.  .Xo+######+oX. ",
" .Xo+######+oX.  .Xo+######+oX.  .Xo+######+oX.  .Xo+######+oX. ",
" .XoO######OoX.  .XoO######OoX.  .XoO######OoX.  .XoO######OoX. ",
"  .Xo######oX.    .Xo######oX.    .Xo######oX.    .Xo######oX.  ",
"  .Xo######oX.    .Xo######oX.    .Xo######oX.    .Xo######oX.  ",
" .XoO######OoX.  .XoO######OoX.  .XoO######OoX.  .XoO######OoX. ",
" .Xo+######+oX.  .Xo+######+oX.  .Xo+######+oX.  .Xo+######+oX. ",
" .Xo+######+oX.  .Xo+######+oX.  .Xo+######+oX.  .Xo+######+oX. ",
" .Xo@######@oX.  .Xo@######@oX.  .Xo@######@oX.  .Xo@######@oX. ",
" XoO########OoX  XoO########OoX  XoO########OoX  XoO########OoX ",
" Xo+########+oX  Xo+########+oX  Xo+########+oX  Xo+########+oX ",
" Xo@########@oX  Xo@########@oX  Xo@########@oX  Xo@########@oX ",
" oO##########Oo  oO##########Oo  oO##########Oo  oO##########Oo ",
" o+##########+o  o+##########+o  o+##########+o  o+##########+o ",
" o+##########+o  o+##########+o  o+##########+o  o+##########+o ",
" o@##########@o  o@##########@o  o@##########@o  o@##########@o ",
" o@##########@o  o@##########@o  o@##########@o  o@##########@o ",
" o@##########@o  o@##########@o  o@##########@o  o@##########@o ",
" o############o  o############o  o############o  o############o ",
" o############o  o############o  o############o  o############o ",
" o############o  o############o  o############o  o############o ",
" o############o  o############o  o############o  o############o ",
" o############o  o############o  o############o  o############o ",
" o############o  o############o  o############o  o############o ",
" o############o  o############o  o############o  o############o ",
" o############o  o############o  o############o  o############o ",
" o@##########@o  o@##########@o  o@##########@o  o@##########@o ",
" o@##########@o  o@##########@o  o@##########@o  o@##########@o ",
" o@##########@o  o@##########@o  o@##########@o  o@##########@o ",
" o+##########+o  o+##########+o  o+##########+o  o+##########+o ",
" o+@########@+o  o+@########@+o  o+@########@+o  o+@########@+o ",
" oO+@######@+Oo  oO+@######@+Oo  oO+@######@+Oo  oO+@######@+Oo ",
" XoO+@####@+OoX  XoO+@####@+OoX  XoO+@####@+OoX  XoO+@####@+OoX ",
" .XoO+@##@+OoX.  .XoO+@##@+OoX.  .XoO+@##@+OoX.  .XoO+@##@+OoX. ",
"  .XooooooooX.    .XooooooooX.    .XooooooooX.    .XooooooooX.  ",
"                                                                "
};
